<svg width="32" height="32" viewBox="0 0 32 32" fill="none" xmlns="http://www.w3.org/2000/svg">
<defs>
<linearGradient id="bg" x1="0" y1="0" x2="32" y2="32" gradientUnits="userSpaceOnUse">
<stop stop-color="#0a1628"/>
<stop offset="1" stop-color="#1a2d50"/>
</linearGradient>
<radialGradient id="glow1" cx="8" cy="10" r="6" gradientUnits="userSpaceOnUse">
<stop stop-color="rgba(180,210,255,0.45)"/><stop offset="1" stop-color="rgba(180,210,255,0)"/>
</radialGradient>
<radialGradient id="glow2" cx="25" cy="22" r="5" gradientUnits="userSpaceOnUse">
<stop stop-color="rgba(180,210,255,0.35)"/><stop offset="1" stop-color="rgba(180,210,255,0)"/>
</radialGradient>
<radialGradient id="glow3" cx="20" cy="6" r="4" gradientUnits="userSpaceOnUse">
<stop stop-color="rgba(200,220,255,0.3)"/><stop offset="1" stop-color="rgba(200,220,255,0)"/>
</radialGradient>
</defs>
<!-- Dark blue background -->
<rect width="32" height="32" rx="2" fill="url(#bg)"/>
<!-- Subtle light glows -->
<circle cx="8" cy="10" r="6" fill="url(#glow1)"/>
<circle cx="25" cy="22" r="5" fill="url(#glow2)"/>
<circle cx="20" cy="6" r="4" fill="url(#glow3)"/>
<!-- White border/frame -->
<rect x="3.5" y="3.5" width="25" height="25" rx="1" stroke="white" stroke-width="1.5" fill="none"/>
<!-- White P letter -->
<path d="M11 24V8h5.5c1.6 0 2.85.45 3.75 1.35.9.9 1.35 2.1 1.35 3.6 0 1.5-.45 2.7-1.35 3.6-.9.9-2.15 1.35-3.75 1.35H14.2V24H11z M14.2 15.1h2.1c.75 0 1.33-.22 1.73-.65.4-.43.6-1.02.6-1.75s-.2-1.3-.6-1.73c-.4-.43-.98-.65-1.73-.65H14.2v4.78z" fill="white"/>
</svg>
